<svg xmlns="http://www.w3.org/2000/svg" viewBox="0 0 502 144" width="1004" height="288" role="img" aria-label="TrackToDeal"><rect width="502" height="144" fill="#0B0F17"/><g transform="translate(24 24)"><path d="M31.875 34.75V46.625H23.359375V60.921875Q23.359375 62.7578125 24.08203125 63.44140625Q24.8046875 64.125 26.953125 64.125H31.875V76.0H23.28125Q15.15625 76.0 11.4453125 73.05078125Q7.734375 70.1015625 7.734375 63.65625V46.625H0.78125V34.75H7.734375V23.5H23.359375V34.75ZM33.996875 76.0V34.75H49.153125V42.25H49.23125Q50.3640625 38.0703125 52.746875 36.41015625Q55.1296875 34.75 59.3875 34.75H63.29375V47.25H57.590625Q53.91875 47.25 51.7703125 49.671875Q49.621875 52.09375 49.621875 56.234375V76.0ZM77.134375 76.7421875Q70.9234375 76.7421875 66.99765625 73.734375Q63.071875 70.7265625 63.071875 64.59375Q63.071875 59.984375 65.18125 57.19140625Q67.290625 54.3984375 70.884375 53.03125Q74.478125 51.6640625 78.93125 51.390625Q84.4 51.0390625 86.665625 50.2578125Q88.93125 49.4765625 88.93125 47.796875V47.640625Q88.93125 46.2734375 87.66171875 45.47265625Q86.3921875 44.671875 84.24375 44.671875Q79.5171875 44.671875 79.0875 48.421875H64.790625Q65.2984375 41.390625 70.3375 37.6015625Q75.3765625 33.8125 84.86875 33.8125Q94.4390625 33.8125 99.41953125 37.6015625Q104.4 41.390625 104.4 48.421875V76.0H89.165625V70.21875H89.009375Q86.978125 73.890625 84.02890625 75.31640625Q81.0796875 76.7421875 77.134375 76.7421875ZM82.2125 67.015625Q84.7515625 67.015625 86.91953125 65.5703125Q89.0875 64.125 89.0875 61.390625V58.109375Q86.8609375 58.890625 82.8375 59.59375Q80.4546875 59.984375 79.06796875 61.01953125Q77.68125 62.0546875 77.68125 63.65625Q77.68125 65.21875 78.95078125 66.1171875Q80.2203125 67.015625 82.2125 67.015625ZM128.7875 76.9375Q122.1859375 76.9375 117.225 74.2421875Q112.2640625 71.546875 109.51015625 66.68359375Q106.75625 61.8203125 106.75625 55.375Q106.75625 48.9296875 109.51015625 44.06640625Q112.2640625 39.203125 117.225 36.5078125Q122.1859375 33.8125 128.7875 33.8125Q134.8421875 33.8125 139.5296875 36.09765625Q144.2171875 38.3828125 146.9515625 42.4453125Q149.6859375 46.5078125 149.88125 51.859375H134.959375Q134.7640625 49.0859375 133.18203125 47.50390625Q131.6 45.921875 129.1 45.921875Q126.0140625 45.921875 124.27578125 48.421875Q122.5375 50.921875 122.5375 55.375Q122.5375 59.7890625 124.27578125 62.30859375Q126.0140625 64.828125 129.1 64.828125Q131.6 64.828125 133.18203125 63.1875Q134.7640625 61.546875 134.959375 58.734375H149.88125Q149.88125 64.0859375 147.1859375 68.1875Q144.490625 72.2890625 139.74453125 74.61328125Q134.9984375 76.9375 128.7875 76.9375ZM152.159375 76.0V17.796875H167.784375V48.1875H167.940625L178.409375 34.75H196.065625L181.534375 52.875L196.534375 76.0H178.8L170.05 61.7421875L167.784375 64.5546875V76.0ZM224.828125 34.75V46.625H216.3125V60.921875Q216.3125 62.7578125 217.03515625 63.44140625Q217.7578125 64.125 219.90625 64.125H224.828125V76.0H216.234375Q208.109375 76.0 204.3984375 73.05078125Q200.6875 70.1015625 200.6875 63.65625V46.625H193.734375V34.75H200.6875V23.5H216.3125V34.75ZM247.496875 76.9375Q240.8171875 76.9375 235.7390625 74.30078125Q230.6609375 71.6640625 227.82890625 66.8203125Q224.996875 61.9765625 224.996875 55.375Q224.996875 48.7734375 227.82890625 43.94921875Q230.6609375 39.125 235.7390625 36.46875Q240.8171875 33.8125 247.496875 33.8125Q254.215625 33.8125 259.27421875 36.46875Q264.3328125 39.125 267.16484375 43.94921875Q269.996875 48.7734375 269.996875 55.375Q269.996875 61.9765625 267.16484375 66.8203125Q264.3328125 71.6640625 259.27421875 74.30078125Q254.215625 76.9375 247.496875 76.9375ZM247.496875 64.75Q250.2703125 64.75 252.24296875 62.38671875Q254.215625 60.0234375 254.215625 55.375Q254.215625 50.7265625 252.24296875 48.36328125Q250.2703125 46.0 247.496875 46.0Q244.7234375 46.0 242.75078125 48.36328125Q240.778125 50.7265625 240.778125 55.375Q240.778125 60.0234375 242.75078125 62.38671875Q244.7234375 64.75 247.496875 64.75ZM288.603125 76.9375Q283.2125 76.9375 279.20859375 74.26171875Q275.2046875 71.5859375 272.99765625 66.72265625Q270.790625 61.859375 270.790625 55.296875Q270.790625 48.96875 273.05625 44.125Q275.321875 39.28125 279.30625 36.546875Q283.290625 33.8125 288.446875 33.8125Q292.4703125 33.8125 295.24375 35.35546875Q298.0171875 36.8984375 299.9703125 40.140625H300.009375V17.796875H315.634375V76.0H300.165625V69.59375H300.1265625Q298.7203125 73.2265625 295.7125 75.08203125Q292.7046875 76.9375 288.603125 76.9375ZM293.2515625 64.671875Q296.4546875 64.671875 298.50546875 62.11328125Q300.55625 59.5546875 300.55625 55.296875Q300.55625 51.0390625 298.50546875 48.51953125Q296.4546875 46.0 293.2515625 46.0Q290.0484375 46.0 288.31015625 48.51953125Q286.571875 51.0390625 286.571875 55.296875Q286.571875 59.5546875 288.31015625 62.11328125Q290.0484375 64.671875 293.2515625 64.671875ZM339.90468749999997 76.9375Q333.49843749999997 76.9375 328.53749999999997 74.18359375Q323.57656249999997 71.4296875 320.78359374999997 66.546875Q317.99062499999997 61.6640625 317.99062499999997 55.375Q317.99062499999997 49.046875 320.76406249999997 44.18359375Q323.53749999999997 39.3203125 328.40078124999997 36.56640625Q333.26406249999997 33.8125 339.59218749999997 33.8125Q345.92031249999997 33.8125 350.80312499999997 36.5078125Q355.68593749999997 39.203125 358.43984374999997 43.96875Q361.19374999999997 48.734375 361.19374999999997 54.9453125V59.125H333.14687499999997Q333.22499999999997 62.40625 335.17812499999997 64.2421875Q337.13124999999997 66.078125 340.52968749999997 66.078125Q343.02968749999997 66.078125 344.80703124999997 65.140625Q346.58437499999997 64.203125 347.20937499999997 62.5234375H361.03749999999997Q360.29531249999997 66.7421875 357.32656249999997 69.984375Q354.35781249999997 73.2265625 349.84609374999997 75.08203125Q345.33437499999997 76.9375 339.90468749999997 76.9375ZM333.26406249999997 50.375H346.77968749999997Q346.38906249999997 47.8359375 344.63124999999997 46.41015625Q342.87343749999997 44.984375 340.02187499999997 44.984375Q337.17031249999997 44.984375 335.41249999999997 46.41015625Q333.65468749999997 47.8359375 333.26406249999997 50.375ZM376.83124999999995 76.7421875Q370.62031249999995 76.7421875 366.69453124999995 73.734375Q362.76874999999995 70.7265625 362.76874999999995 64.59375Q362.76874999999995 59.984375 364.87812499999995 57.19140625Q366.98749999999995 54.3984375 370.58124999999995 53.03125Q374.17499999999995 51.6640625 378.62812499999995 51.390625Q384.09687499999995 51.0390625 386.36249999999995 50.2578125Q388.62812499999995 49.4765625 388.62812499999995 47.796875V47.640625Q388.62812499999995 46.2734375 387.35859374999995 45.47265625Q386.08906249999995 44.671875 383.94062499999995 44.671875Q379.21406249999995 44.671875 378.78437499999995 48.421875H364.48749999999995Q364.99531249999995 41.390625 370.03437499999995 37.6015625Q375.07343749999995 33.8125 384.56562499999995 33.8125Q394.13593749999995 33.8125 399.11640624999995 37.6015625Q404.09687499999995 41.390625 404.09687499999995 48.421875V76.0H388.86249999999995V70.21875H388.70624999999995Q386.67499999999995 73.890625 383.72578124999995 75.31640625Q380.77656249999995 76.7421875 376.83124999999995 76.7421875ZM381.90937499999995 67.015625Q384.44843749999995 67.015625 386.61640624999995 65.5703125Q388.78437499999995 64.125 388.78437499999995 61.390625V58.109375Q386.55781249999995 58.890625 382.53437499999995 59.59375Q380.15156249999995 59.984375 378.76484374999995 61.01953125Q377.37812499999995 62.0546875 377.37812499999995 63.65625Q377.37812499999995 65.21875 378.64765624999995 66.1171875Q379.91718749999995 67.015625 381.90937499999995 67.015625ZM423.64062499999994 17.796875V76.0H408.01562499999994V17.796875Z" fill="#FFFFFF"/><circle cx="442.0" cy="65" r="11" fill="#22C55E"/></g></svg>